<svg width="525" height="352" viewBox="0 0 525 352" fill="none" xmlns="http://www.w3.org/2000/svg">
<path d="M0 30.0035C15.5403 18.8861 55.6748 22.82 79.7284 68.4869C109.796 125.571 142.903 137.116 199.659 137.116C255.821 137.116 299.657 170.468 316.211 218.572C332.765 266.676 395.264 244.869 433.439 262.828C463.979 277.195 483.1 327.822 488.843 351.34" stroke="#E3E6FF"/>
<path d="M0 6.60509C16.6579 -5.32185 59.6788 -1.10153 85.4623 47.8907C117.692 109.131 153.18 121.516 214.018 121.516C274.22 121.516 321.208 157.297 338.952 208.904C356.697 260.511 423.69 237.116 464.611 256.383C497.347 271.796 517.844 326.109 524 351.34" stroke="#E3E6FF"/>
<path d="M0 52.8442C14.4227 42.5363 51.6708 46.1837 73.9945 88.5254C101.899 141.453 132.626 152.157 185.3 152.157C237.423 152.157 278.107 183.081 293.47 227.682C308.833 272.283 366.837 252.064 402.267 268.715C430.611 282.036 448.357 328.977 453.687 350.782" stroke="#E3E6FF"/>
</svg>
